# xmcd CD database file
#
# Track frame offsets:
#	150
#	17782
#	37032
#	52850
#
# Disc length: 937 seconds
#
# Revision: 0
# Processed by: cddbd v1.5.1PL2 Copyright (c) Steve Scherf et al.
# Submitted via: CDex 1.60beta1
#
DISCID=2903a704
DTITLE=北原愛子 - もう一度　君に恋している
DYEAR=2006
DGENRE=Pop
TTITLE0=もう一度　君に恋している
TTITLE1=ダイジョウブ
TTITLE2=常夏のエトセトラ
TTITLE3=もう一度　君に恋している-instrumental-
EXTD=YEAR: 2006
EXTT0=
EXTT1=
EXTT2=
EXTT3=
PLAYORDER=
